<svg xmlns="http://www.w3.org/2000/svg" xmlns:xlink="http://www.w3.org/1999/xlink" width="690" height="385.65"><rect width="690" height="385.65" rx="5" ry="5" class="a"/><svg y="0%" x="0%"><circle cx="20" cy="20" r="6" fill="#ff5f58"/><circle cx="40" cy="20" r="6" fill="#ffbd2e"/><circle cx="60" cy="20" r="6" fill="#18c132"/></svg><svg height="325.65" viewBox="0 0 65 32.565" width="650" x="15" xmlns="http://www.w3.org/2000/svg" xmlns:xlink="http://www.w3.org/1999/xlink" y="50"><style>@keyframes l{0%{transform:translateX(-195px)}2.8%{transform:translateX(-260px)}8%{transform:translateX(-325px)}8.1%{transform:translateX(-390px)}8.3%{transform:translateX(-520px)}8.4%{transform:translateX(-650px)}29.2%{transform:translateX(-910px)}42.2%{transform:translateX(-975px)}42.3%{transform:translateX(-1170px)}55.4%{transform:translateX(-1300px)}55.5%{transform:translateX(-1430px)}70.3%{transform:translateX(-1690px)}78.6%{transform:translateX(-1885px)}78.7%{transform:translateX(-1950px)}92.9%{transform:translateX(-2015px)}93.2%{transform:translateX(-2080px)}93.5%{transform:translateX(-2470px)}to{transform:translateX(-2535px)}}.a{fill:#282d35}.f{fill:#b9c0cb}.g{fill:gray}.h{fill:#a8cc8c}</style><g font-size="1.67" font-family="Monaco,Consolas,Menlo,'Bitstream Vera Sans Mono','Powerline Symbols',monospace"><defs><symbol id="1"><text y="1.67" class="f">$</text><text x="2.004" y="1.67" class="f">npm</text><text x="6.012" y="1.67" class="f">run</text><text x="10.02" y="1.67" class="f">demo</text></symbol><symbol id="2"><text y="1.67" class="f">&gt;</text><text x="2.004" y="1.67" class="f">ink-tab@1.1.0</text><text x="16.032" y="1.67" class="f">demo</text><text x="21.042" y="1.67" class="f">/home/jdeniau/code/ink-tab</text></symbol><symbol id="3"><text y="1.67" class="f">&gt;</text><text x="2.004" y="1.67" class="f">babel-node</text><text x="13.026" y="1.67" class="f">demo/index.js</text></symbol><symbol id="4"><text y="1.67" class="g">0.</text><path class="h" d="M3.006 0h3v2.171h-3z"/><text x="3.006" y="1.67" class="f">Foo</text><text x="7.014" y="1.67" class="f">|</text><text x="9.018" y="1.67" class="g">1.</text><text x="12.024" y="1.67" class="f">Bar</text><text x="16.032" y="1.67" class="f">|</text><text x="18.036" y="1.67" class="g">2.</text><text x="21.042" y="1.67" class="f">Baz</text></symbol><symbol id="5"><text y="1.67" class="f">Selected</text><text x="9.018" y="1.67" class="f">tab</text><text x="13.026" y="1.67" class="f">is</text><text x="16.032" y="1.67" class="f">&quot;foo&quot;</text></symbol><symbol id="6"><text y="1.67" class="f">Selected</text><text x="9.018" y="1.67" class="f">tab</text><text x="13.026" y="1.67" class="f">is</text><text x="16.032" y="1.67" class="f">&quot;bar&quot;</text></symbol><symbol id="7"><text y="1.67" class="g">0.</text><text x="3.006" y="1.67" class="f">Foo</text><text x="7.014" y="1.67" class="f">|</text><text x="9.018" y="1.67" class="g">1.</text><path class="h" d="M12.024 0h3v2.171h-3z"/><text x="12.024" y="1.67" class="f">Bar</text><text x="16.032" y="1.67" class="f">|</text><text x="18.036" y="1.67" class="g">2.</text><text x="21.042" y="1.67" class="f">Baz</text></symbol><symbol id="8"><text y="1.67" class="f">Selected</text><text x="9.018" y="1.67" class="f">tab</text><text x="13.026" y="1.67" class="f">is</text><text x="16.032" y="1.67" class="f">&quot;baz&quot;</text></symbol><symbol id="9"><text y="1.67" class="g">0.</text><text x="3.006" y="1.67" class="f">Foo</text><text x="7.014" y="1.67" class="f">|</text><text x="9.018" y="1.67" class="g">1.</text><text x="12.024" y="1.67" class="f">Bar</text><text x="16.032" y="1.67" class="f">|</text><text x="18.036" y="1.67" class="g">2.</text><path class="h" d="M21.042 0h3v2.171h-3z"/><text x="21.042" y="1.67" class="f">Baz</text></symbol><symbol id="10"><path class="f" d="M0 0h1v2.171H0z"/><text y="1.67" fill="#282d35" font-weight="700">%</text></symbol><symbol id="11"><text y="1.67" class="f">$</text></symbol><symbol id="a"><path fill="transparent" d="M0 0h65v16H0z"/></symbol><symbol id="b"><path fill="#6f7683" d="M0 0h1.102v2.171H0z"/></symbol></defs><path class="a" d="M0 0h65v32.565H0z"/><g style="animation-duration:9.120929000000004s;animation-iteration-count:infinite;animation-name:l;animation-timing-function:steps(1,end)"><svg width="2600"><svg><use xlink:href="#a"/><use xlink:href="#b" x="1.996"/><use xlink:href="#1"/></svg><svg x="65"><use xlink:href="#a"/><use xlink:href="#b" x="1.996"/><use xlink:href="#1"/></svg><svg x="130"><use xlink:href="#a"/><use xlink:href="#b" x="-.004" y="2.146"/><use xlink:href="#1"/></svg><svg x="195"><use xlink:href="#a"/><use xlink:href="#b" x="-.004" y="2.146"/><use xlink:href="#1"/></svg><svg x="260"><use xlink:href="#a"/><use xlink:href="#b" x="-.004" y="10.83"/><use xlink:href="#1"/><use xlink:href="#2" y="4.342"/><use xlink:href="#3" y="6.513"/></svg><svg x="325"><use xlink:href="#a"/><use xlink:href="#1"/><use xlink:href="#2" y="4.342"/><use xlink:href="#3" y="6.513"/></svg><svg x="390"><use xlink:href="#a"/><use xlink:href="#1"/><use xlink:href="#2" y="4.342"/><use xlink:href="#3" y="6.513"/><use xlink:href="#4" y="13.026"/></svg><svg x="455"><use xlink:href="#a"/><use xlink:href="#1"/><use xlink:href="#2" y="4.342"/><use xlink:href="#3" y="6.513"/><use xlink:href="#4" y="13.026"/></svg><svg x="520"><use xlink:href="#a"/><use xlink:href="#1"/><use xlink:href="#2" y="4.342"/><use xlink:href="#3" y="6.513"/><use xlink:href="#5" y="10.855"/><use xlink:href="#4" y="13.026"/></svg><svg x="585"><use xlink:href="#a"/><use xlink:href="#1"/><use xlink:href="#2" y="4.342"/><use xlink:href="#3" y="6.513"/><use xlink:href="#5" y="10.855"/><use xlink:href="#4" y="13.026"/></svg><svg x="650"><use xlink:href="#a"/><use xlink:href="#1"/><use xlink:href="#2" y="4.342"/><use xlink:href="#3" y="6.513"/><use xlink:href="#5" y="10.855"/><use xlink:href="#4" y="13.026"/></svg><svg x="715"><use xlink:href="#a"/><use xlink:href="#1"/><use xlink:href="#2" y="4.342"/><use xlink:href="#3" y="6.513"/><use xlink:href="#5" y="10.855"/><use xlink:href="#4" y="13.026"/></svg><svg x="780"><use xlink:href="#a"/><use xlink:href="#1"/><use xlink:href="#2" y="4.342"/><use xlink:href="#3" y="6.513"/><use xlink:href="#6" y="10.855"/><use xlink:href="#7" y="13.026"/></svg><svg x="845"><use xlink:href="#a"/><use xlink:href="#1"/><use xlink:href="#2" y="4.342"/><use xlink:href="#3" y="6.513"/><use xlink:href="#6" y="10.855"/><use xlink:href="#7" y="13.026"/></svg><svg x="910"><use xlink:href="#a"/><use xlink:href="#1"/><use xlink:href="#2" y="4.342"/><use xlink:href="#3" y="6.513"/><use xlink:href="#6" y="10.855"/><use xlink:href="#7" y="13.026"/></svg><svg x="975"><use xlink:href="#a"/><use xlink:href="#1"/><use xlink:href="#2" y="4.342"/><use xlink:href="#3" y="6.513"/><use xlink:href="#6" y="10.855"/><use xlink:href="#7" y="13.026"/></svg><svg x="1040"><use xlink:href="#a"/><use xlink:href="#1"/><use xlink:href="#2" y="4.342"/><use xlink:href="#3" y="6.513"/><use xlink:href="#8" y="10.855"/><use xlink:href="#9" y="13.026"/></svg><svg x="1105"><use xlink:href="#a"/><use xlink:href="#1"/><use xlink:href="#2" y="4.342"/><use xlink:href="#3" y="6.513"/><use xlink:href="#8" y="10.855"/><use xlink:href="#9" y="13.026"/></svg><svg x="1170"><use xlink:href="#a"/><use xlink:href="#1"/><use xlink:href="#2" y="4.342"/><use xlink:href="#3" y="6.513"/><use xlink:href="#8" y="10.855"/><use xlink:href="#9" y="13.026"/></svg><svg x="1235"><use xlink:href="#a"/><use xlink:href="#1"/><use xlink:href="#2" y="4.342"/><use xlink:href="#3" y="6.513"/><use xlink:href="#8" y="10.855"/><use xlink:href="#9" y="13.026"/></svg><svg x="1300"><use xlink:href="#a"/><use xlink:href="#1"/><use xlink:href="#2" y="4.342"/><use xlink:href="#3" y="6.513"/><use xlink:href="#5" y="10.855"/><use xlink:href="#4" y="13.026"/></svg><svg x="1365"><use xlink:href="#a"/><use xlink:href="#1"/><use xlink:href="#2" y="4.342"/><use xlink:href="#3" y="6.513"/><use xlink:href="#5" y="10.855"/><use xlink:href="#4" y="13.026"/></svg><svg x="1430"><use xlink:href="#a"/><use xlink:href="#1"/><use xlink:href="#2" y="4.342"/><use xlink:href="#3" y="6.513"/><use xlink:href="#5" y="10.855"/><use xlink:href="#4" y="13.026"/></svg><svg x="1495"><use xlink:href="#a"/><use xlink:href="#1"/><use xlink:href="#2" y="4.342"/><use xlink:href="#3" y="6.513"/><use xlink:href="#5" y="10.855"/><use xlink:href="#4" y="13.026"/></svg><svg x="1560"><use xlink:href="#a"/><use xlink:href="#1"/><use xlink:href="#2" y="4.342"/><use xlink:href="#3" y="6.513"/><use xlink:href="#6" y="10.855"/><use xlink:href="#7" y="13.026"/></svg><svg x="1625"><use xlink:href="#a"/><use xlink:href="#1"/><use xlink:href="#2" y="4.342"/><use xlink:href="#3" y="6.513"/><use xlink:href="#6" y="10.855"/><use xlink:href="#7" y="13.026"/></svg><svg x="1690"><use xlink:href="#a"/><use xlink:href="#1"/><use xlink:href="#2" y="4.342"/><use xlink:href="#3" y="6.513"/><use xlink:href="#6" y="10.855"/><use xlink:href="#7" y="13.026"/></svg><svg x="1755"><use xlink:href="#a"/><use xlink:href="#1"/><use xlink:href="#2" y="4.342"/><use xlink:href="#3" y="6.513"/><use xlink:href="#6" y="10.855"/><use xlink:href="#7" y="13.026"/></svg><svg x="1820"><use xlink:href="#a"/><use xlink:href="#1"/><use xlink:href="#2" y="4.342"/><use xlink:href="#3" y="6.513"/><use xlink:href="#5" y="10.855"/><use xlink:href="#4" y="13.026"/></svg><svg x="1885"><use xlink:href="#a"/><use xlink:href="#1"/><use xlink:href="#2" y="4.342"/><use xlink:href="#3" y="6.513"/><use xlink:href="#5" y="10.855"/><use xlink:href="#4" y="13.026"/></svg><svg x="1950"><use xlink:href="#a"/><use xlink:href="#1"/><use xlink:href="#2" y="4.342"/><use xlink:href="#3" y="6.513"/><use xlink:href="#5" y="10.855"/><use xlink:href="#4" y="13.026"/></svg><svg x="2015"><use xlink:href="#a"/><use xlink:href="#b" x="-.004" y="17.343"/><use xlink:href="#1"/><use xlink:href="#2" y="4.342"/><use xlink:href="#3" y="6.513"/><use xlink:href="#5" y="10.855"/><use xlink:href="#4" y="13.026"/></svg><svg x="2080"><use xlink:href="#a"/><use xlink:href="#b" x="-.004" y="17.343"/><use xlink:href="#1"/><use xlink:href="#2" y="4.342"/><use xlink:href="#3" y="6.513"/><use xlink:href="#5" y="10.855"/><use xlink:href="#4" y="13.026"/></svg><svg x="2145"><use xlink:href="#a"/><use xlink:href="#b" x="-.004" y="21.685"/><use xlink:href="#1"/><use xlink:href="#2" y="4.342"/><use xlink:href="#3" y="6.513"/><use xlink:href="#5" y="10.855"/><use xlink:href="#4" y="13.026"/><use xlink:href="#10" y="17.368"/></svg><svg x="2210"><use xlink:href="#a"/><use xlink:href="#b" x="-.004" y="21.685"/><use xlink:href="#1"/><use xlink:href="#2" y="4.342"/><use xlink:href="#3" y="6.513"/><use xlink:href="#5" y="10.855"/><use xlink:href="#4" y="13.026"/><use xlink:href="#10" y="17.368"/></svg><svg x="2275"><use xlink:href="#a"/><use xlink:href="#b" x="-.004" y="21.685"/><use xlink:href="#1"/><use xlink:href="#2" y="4.342"/><use xlink:href="#3" y="6.513"/><use xlink:href="#5" y="10.855"/><use xlink:href="#4" y="13.026"/><use xlink:href="#10" y="17.368"/></svg><svg x="2340"><use xlink:href="#a"/><use xlink:href="#b" x="1.996" y="21.685"/><use xlink:href="#1"/><use xlink:href="#2" y="4.342"/><use xlink:href="#3" y="6.513"/><use xlink:href="#5" y="10.855"/><use xlink:href="#4" y="13.026"/><use xlink:href="#10" y="17.368"/><use xlink:href="#11" y="21.71"/></svg><svg x="2405"><use xlink:href="#a"/><use xlink:href="#b" x="1.996" y="21.685"/><use xlink:href="#1"/><use xlink:href="#2" y="4.342"/><use xlink:href="#3" y="6.513"/><use xlink:href="#5" y="10.855"/><use xlink:href="#4" y="13.026"/><use xlink:href="#10" y="17.368"/><use xlink:href="#11" y="21.71"/></svg><svg x="2470"><use xlink:href="#a"/><use xlink:href="#b" x="1.996" y="21.685"/><use xlink:href="#1"/><use xlink:href="#2" y="4.342"/><use xlink:href="#3" y="6.513"/><use xlink:href="#5" y="10.855"/><use xlink:href="#4" y="13.026"/><use xlink:href="#10" y="17.368"/><use xlink:href="#11" y="21.71"/></svg><svg x="2535"><use xlink:href="#a"/><use xlink:href="#b" x="-.004" y="23.856"/><use xlink:href="#1"/><use xlink:href="#2" y="4.342"/><use xlink:href="#3" y="6.513"/><use xlink:href="#5" y="10.855"/><use xlink:href="#4" y="13.026"/><use xlink:href="#10" y="17.368"/><use xlink:href="#11" y="21.71"/></svg></svg></g></g></svg></svg>