<svg xmlns="http://www.w3.org/2000/svg" xmlns:xlink="http://www.w3.org/1999/xlink" width="740" height="385.65"><rect width="740" height="385.65" rx="5" ry="5" class="a"/><svg y="0%" x="0%"><circle cx="20" cy="20" r="6" fill="#ff5f58"/><circle cx="40" cy="20" r="6" fill="#ffbd2e"/><circle cx="60" cy="20" r="6" fill="#18c132"/></svg><svg height="325.65" viewBox="0 0 70 32.565" width="700" x="15" xmlns="http://www.w3.org/2000/svg" xmlns:xlink="http://www.w3.org/1999/xlink" y="50"><style>@keyframes l{0%{transform:translateX(0)}3.7%{transform:translateX(-70px)}3.8%{transform:translateX(-140px)}4.8%{transform:translateX(-280px)}5.2%{transform:translateX(-350px)}19.7%{transform:translateX(-420px)}20.5%{transform:translateX(-560px)}34.7%{transform:translateX(-630px)}34.8%{transform:translateX(-700px)}47.2%{transform:translateX(-840px)}64.6%{transform:translateX(-910px)}64.7%{transform:translateX(-980px)}77.8%{transform:translateX(-1120px)}90.5%{transform:translateX(-1260px)}99.8%{transform:translateX(-1330px)}to{transform:translateX(-1470px)}}.a{fill:#282d35}.f{fill:#b9c0cb;font-weight:700}.g{fill:gray}.h{fill:#a8cc8c}.j{fill:#b9c0cb}</style><g font-size="1.67" font-family="Monaco,Consolas,Menlo,'Bitstream Vera Sans Mono','Powerline Symbols',monospace"><defs><symbol id="1"><text y="1.67" class="f">yarn</text><text x="5.01" y="1.67" class="f">run</text><text x="9.018" y="1.67" class="f">v1.13.0</text></symbol><symbol id="2"><text y="1.67" class="g">1.</text><path class="h" d="M3.006 0h3v2.171h-3z"/><text x="3.006" y="1.67" class="i">Foo</text><text x="7.014" y="1.67" class="j">Selected</text><text x="16.032" y="1.67" class="j">tab</text><text x="20.04" y="1.67" class="j">is</text><text x="23.046" y="1.67" class="j">&quot;foo&quot;</text></symbol><symbol id="3"><text y="1.67" class="j">──────</text></symbol><symbol id="4"><text y="1.67" class="g">2.</text><text x="3.006" y="1.67" class="j">Bar</text></symbol><symbol id="5"><text y="1.67" class="g">3.</text><text x="3.006" y="1.67" class="j">Baz</text></symbol><symbol id="6"><text y="1.67" class="g">1.</text><text x="3.006" y="1.67" class="j">Foo</text><text x="7.014" y="1.67" class="j">Selected</text><text x="16.032" y="1.67" class="j">tab</text><text x="20.04" y="1.67" class="j">is</text><text x="23.046" y="1.67" class="j">&quot;bar&quot;</text></symbol><symbol id="7"><text y="1.67" class="g">2.</text><path class="h" d="M3.006 0h3v2.171h-3z"/><text x="3.006" y="1.67" class="i">Bar</text></symbol><symbol id="8"><text y="1.67" class="g">1.</text><text x="3.006" y="1.67" class="j">Foo</text><text x="7.014" y="1.67" class="j">Selected</text><text x="16.032" y="1.67" class="j">tab</text><text x="20.04" y="1.67" class="j">is</text><text x="23.046" y="1.67" class="j">&quot;baz&quot;</text></symbol><symbol id="9"><text y="1.67" class="g">3.</text><path class="h" d="M3.006 0h3v2.171h-3z"/><text x="3.006" y="1.67" class="i">Baz</text></symbol><symbol id="a"><path fill="transparent" d="M0 0h70v16H0z"/></symbol></defs><path class="a" d="M0 0h70v32.565H0z"/><g style="animation-duration:6.331546s;animation-iteration-count:infinite;animation-name:l;animation-timing-function:steps(1,end)"><svg width="1540"><svg><use xlink:href="#a"/></svg><svg x="70"><use xlink:href="#a"/></svg><svg x="140"><use xlink:href="#a"/><use xlink:href="#1"/></svg><svg x="210"><use xlink:href="#a"/><use xlink:href="#1"/></svg><svg x="280"><use xlink:href="#a"/><use xlink:href="#1"/><text y="3.841" class="j">$</text><text x="2.004" y="3.841" class="j">clear</text><text x="8.016" y="3.841" class="j">&amp;&amp;</text><text x="11.022" y="3.841" class="j">babel-node</text><text x="22.044" y="3.841" class="j">demo/index.js</text><text x="36.072" y="3.841" class="j">--column</text></svg><svg x="350"><use xlink:href="#a"/></svg><svg x="420"><use xlink:href="#a"/></svg><svg x="490"><use xlink:href="#a"/></svg><svg x="560"><use xlink:href="#a"/><use xlink:href="#2"/><use xlink:href="#3" y="2.171"/><use xlink:href="#4" y="4.342"/><use xlink:href="#3" y="6.513"/><use xlink:href="#5" y="8.684"/></svg><svg x="630"><use xlink:href="#a"/><use xlink:href="#2"/><use xlink:href="#3" y="2.171"/><use xlink:href="#4" y="4.342"/><use xlink:href="#3" y="6.513"/><use xlink:href="#5" y="8.684"/></svg><svg x="700"><use xlink:href="#a"/><use xlink:href="#6"/><use xlink:href="#3" y="2.171"/><use xlink:href="#7" y="4.342"/><use xlink:href="#3" y="6.513"/><use xlink:href="#5" y="8.684"/></svg><svg x="770"><use xlink:href="#a"/><use xlink:href="#6"/><use xlink:href="#3" y="2.171"/><use xlink:href="#7" y="4.342"/><use xlink:href="#3" y="6.513"/><use xlink:href="#5" y="8.684"/></svg><svg x="840"><use xlink:href="#a"/><use xlink:href="#8"/><use xlink:href="#3" y="2.171"/><use xlink:href="#4" y="4.342"/><use xlink:href="#3" y="6.513"/><use xlink:href="#9" y="8.684"/></svg><svg x="910"><use xlink:href="#a"/><use xlink:href="#8"/><use xlink:href="#3" y="2.171"/><use xlink:href="#4" y="4.342"/><use xlink:href="#3" y="6.513"/><use xlink:href="#9" y="8.684"/></svg><svg x="980"><use xlink:href="#a"/><use xlink:href="#2"/><use xlink:href="#3" y="2.171"/><use xlink:href="#4" y="4.342"/><use xlink:href="#3" y="6.513"/><use xlink:href="#5" y="8.684"/></svg><svg x="1050"><use xlink:href="#a"/><use xlink:href="#2"/><use xlink:href="#3" y="2.171"/><use xlink:href="#4" y="4.342"/><use xlink:href="#3" y="6.513"/><use xlink:href="#5" y="8.684"/></svg><svg x="1120"><use xlink:href="#a"/><use xlink:href="#6"/><use xlink:href="#3" y="2.171"/><use xlink:href="#7" y="4.342"/><use xlink:href="#3" y="6.513"/><use xlink:href="#5" y="8.684"/></svg><svg x="1190"><use xlink:href="#a"/><use xlink:href="#6"/><use xlink:href="#3" y="2.171"/><use xlink:href="#7" y="4.342"/><use xlink:href="#3" y="6.513"/><use xlink:href="#5" y="8.684"/></svg><svg x="1260"><use xlink:href="#a"/><use xlink:href="#2"/><use xlink:href="#3" y="2.171"/><use xlink:href="#4" y="4.342"/><use xlink:href="#3" y="6.513"/><use xlink:href="#5" y="8.684"/></svg><svg x="1330"><use xlink:href="#a"/><use xlink:href="#2"/><use xlink:href="#3" y="2.171"/><use xlink:href="#4" y="4.342"/><use xlink:href="#3" y="6.513"/><use xlink:href="#5" y="8.684"/></svg><svg x="1400"><use xlink:href="#a"/><use xlink:href="#2"/><use xlink:href="#3" y="2.171"/><use xlink:href="#4" y="4.342"/><use xlink:href="#3" y="6.513"/><use xlink:href="#5" y="8.684"/></svg><svg x="1470"><use xlink:href="#a"/><use xlink:href="#2"/><use xlink:href="#3" y="2.171"/><use xlink:href="#4" y="4.342"/><use xlink:href="#3" y="6.513"/><use xlink:href="#5" y="8.684"/><text y="14.696" class="j">Done</text><text x="5.01" y="14.696" class="j">in</text><text x="8.016" y="14.696" class="j">6.10s.</text></svg></svg></g></g></svg></svg>